<svg width="137" height="35" viewBox="0 0 137 35" fill="none" xmlns="http://www.w3.org/2000/svg">
<path fill-rule="evenodd" clip-rule="evenodd" d="M0.928022 29.6998L1.074 29.739C1.02463 29.7292 0.975874 29.7161 0.928022 29.6998ZM21.7304 14.8303C22.2779 15.1564 22.6185 15.5868 22.728 16.0303L22.7523 16.1999C22.7036 16.6955 22.3508 17.1912 21.7183 17.5694L2.49732 29.2694C2.10804 29.5172 1.73092 29.6216 1.40246 29.6216C1.06184 29.6216 0.769875 29.5042 0.526572 29.2824L0.453582 29.2042C0.13473 28.7918 -0.0261549 28.265 0.00347068 27.7303V4.6695C0.00347068 3.96516 0.198113 3.43038 0.526572 3.10429C0.769875 2.88255 1.06184 2.76516 1.40246 2.76516C1.73092 2.76516 2.10804 2.88255 2.49732 3.11734L21.7183 14.8303H21.7304ZM1.3903 2.60864H1.56061H1.3903ZM113.066 29.165H115.329V12.8608H113.066V29.165ZM133.504 18.7303L130.9 25.7998H130.827L128.127 18.7303H125.682L129.733 28.6172L127.421 34.1085H129.793L136.034 18.7303H133.504ZM120.633 27.3129C119.891 27.3129 118.857 26.9216 118.857 25.9303C118.857 24.6651 120.146 24.1825 121.253 24.1825C122.263 24.1825 122.725 24.4172 123.334 24.7303C123.251 25.4383 122.932 26.0902 122.436 26.5652C121.939 27.0401 121.298 27.3057 120.633 27.3129ZM120.913 18.3781C119.258 18.3781 117.567 19.1607 116.862 20.8694L118.869 21.7825C119.307 20.8694 120.11 20.5825 120.937 20.5825C122.117 20.5825 123.309 21.3259 123.334 22.6694V22.839C122.603 22.4242 121.788 22.2092 120.962 22.2129C118.796 22.2129 116.582 23.4912 116.582 25.8781C116.582 28.0694 118.37 29.4781 120.353 29.4781C121.886 29.4781 122.725 28.7346 123.261 27.8737H123.334V29.139H125.523V22.8781C125.523 19.9955 123.504 18.3781 120.901 18.3781H120.913ZM106.874 20.726H103.65V15.1173H106.874C108.577 15.1173 109.551 16.6303 109.551 17.9216C109.551 19.1868 108.577 20.7129 106.874 20.7129V20.726ZM106.826 12.8608H101.376V29.165H103.65V22.9825H106.813C109.332 22.9825 111.801 21.0259 111.801 17.9216C111.801 14.8173 109.332 12.8608 106.813 12.8608H106.826ZM77.1548 27.3129C75.5977 27.3129 74.2838 25.9042 74.2838 23.9738C74.2838 22.0173 75.5977 20.5825 77.1548 20.5825C78.712 20.5825 79.9285 22.0173 79.9285 23.9738C79.9285 25.9042 78.712 27.3129 77.1548 27.3129ZM79.7703 19.6433H79.6852C79.3393 19.2409 78.9173 18.9222 78.4474 18.7085C77.9775 18.4949 77.4705 18.3911 76.9602 18.4042C75.621 18.4585 74.3543 19.0708 73.4297 20.1109C72.5051 21.1511 71.9953 22.5369 72.009 23.9738C71.9987 25.4058 72.5106 26.7855 73.4356 27.8186C74.3605 28.8517 75.6253 29.4566 76.9602 29.5042C77.4729 29.5183 77.9823 29.4125 78.4529 29.1939C78.9235 28.9754 79.344 28.6495 79.6852 28.239H79.7703V29.0346C79.7703 31.1607 78.712 32.2955 77.0088 32.2955C76.4395 32.2838 75.8864 32.0901 75.4204 31.7392C74.9544 31.3883 74.5968 30.8962 74.3933 30.3259L72.4226 31.1998C72.7939 32.1758 73.4291 33.0103 74.2464 33.596C75.0637 34.1818 76.0258 34.492 77.0088 34.4868C79.673 34.4868 81.9236 32.7911 81.9236 28.7085V18.7434H79.7703V19.6564V19.6433ZM83.4929 29.165H85.7677V12.8608H83.4929V29.165ZM89.1132 23.7781C89.0885 23.3747 89.1392 22.97 89.2622 22.5878C89.3852 22.2056 89.5781 21.8536 89.8296 21.5524C90.0811 21.2511 90.3862 21.0067 90.7269 20.8335C91.0676 20.6602 91.4371 20.5616 91.8138 20.5433C92.7262 20.5433 93.4926 21.0259 93.7359 21.7173L89.1132 23.7912V23.7781ZM96.1689 21.939C95.7432 20.6999 94.4293 18.4173 91.7408 18.4173C89.0767 18.4173 86.8626 20.6477 86.8626 23.9477C86.8626 27.0651 89.0523 29.5042 91.9963 29.5042C94.3685 29.5042 95.7432 27.939 96.3149 27.039L94.551 25.7868C94.2851 26.2569 93.9099 26.6447 93.462 26.9123C93.0141 27.1798 92.509 27.3179 91.9963 27.3129C90.8406 27.3129 90.0134 26.752 89.4903 25.6303L96.4122 22.5651L96.1689 21.939ZM41.0608 20.1129V22.4607H46.304C46.2283 23.5633 45.8084 24.6064 45.1118 25.4216C44.5847 25.9975 43.9506 26.4483 43.2507 26.7449C42.5508 27.0414 41.8006 27.1772 41.0487 27.1433C40.2863 27.1417 39.5318 26.9779 38.8288 26.6616C38.1258 26.3452 37.4883 25.8825 36.9532 25.3003C36.418 24.718 35.9959 24.0278 35.7112 23.2695C35.4265 22.5112 35.2849 21.6998 35.2946 20.8825C35.2802 19.6688 35.5994 18.4774 36.2123 17.4569C36.8252 16.4364 37.7047 15.632 38.7412 15.1438C39.7776 14.6556 40.9252 14.5053 42.0407 14.7117C43.1563 14.918 44.1905 15.4719 45.0145 16.3042L46.5595 14.6477C45.8344 13.8788 44.9735 13.2728 44.0273 12.8652C43.081 12.4575 42.0683 12.2565 41.0487 12.2738C38.9079 12.2736 36.853 13.1764 35.3279 14.7872C33.8028 16.3979 32.93 18.5874 32.898 20.8825C32.93 23.1775 33.8028 25.367 35.3279 26.9778C36.853 28.5886 38.9079 29.4914 41.0487 29.4911C43.4452 29.4911 45.2456 28.6564 46.6568 27.0781C47.9358 25.5796 48.617 23.6039 48.5546 21.5738C48.5546 21.026 48.5181 20.5303 48.4329 20.1129H41.0487H41.0608ZM54.5276 27.3129C52.9583 27.3129 51.608 25.9303 51.608 23.9477C51.608 21.952 52.9583 20.5955 54.5276 20.5955C56.1091 20.5955 57.4473 21.952 57.4473 23.9477C57.4473 25.9303 56.1091 27.3129 54.5276 27.3129ZM54.5276 18.4042C53.8444 18.392 53.1658 18.5268 52.532 18.8007C51.8982 19.0746 51.3221 19.482 50.8377 19.9989C50.3534 20.5158 49.9707 21.1316 49.7123 21.8098C49.4538 22.4881 49.3249 23.215 49.3331 23.9477C49.3233 24.6814 49.451 25.4098 49.7087 26.0895C49.9664 26.7693 50.3488 27.3867 50.8333 27.9049C51.3178 28.4232 51.8945 28.8318 52.5291 29.1065C53.1637 29.3813 53.8434 29.5165 54.5276 29.5042C55.2119 29.5165 55.8916 29.3813 56.5262 29.1065C57.1608 28.8318 57.7375 28.4232 58.222 27.9049C58.7065 27.3867 59.0889 26.7693 59.3466 26.0895C59.6043 25.4098 59.732 24.6814 59.7222 23.9477C59.7304 23.215 59.6015 22.4881 59.343 21.8098C59.0846 21.1316 58.7019 20.5158 58.2175 19.9989C57.7332 19.482 57.1571 19.0746 56.5233 18.8007C55.8895 18.5268 55.2109 18.392 54.5276 18.4042ZM65.8656 27.3129C64.2841 27.3129 62.9459 25.9303 62.9459 23.9477C62.9459 21.952 64.2841 20.5955 65.8656 20.5955C67.4227 20.5955 68.7852 21.952 68.7852 23.9477C68.7852 25.9303 67.4227 27.3129 65.8656 27.3129ZM65.8656 18.4042C65.1823 18.392 64.5037 18.5268 63.8699 18.8007C63.2361 19.0746 62.66 19.482 62.1757 19.9989C61.6913 20.5158 61.3086 21.1316 61.0502 21.8098C60.7917 22.4881 60.6628 23.215 60.6711 23.9477C60.6612 24.6814 60.7889 25.4098 61.0466 26.0895C61.3043 26.7693 61.6867 27.3867 62.1712 27.9049C62.6558 28.4232 63.2324 28.8318 63.867 29.1065C64.5017 29.3813 65.1813 29.5165 65.8656 29.5042C66.5499 29.5165 67.2295 29.3813 67.8641 29.1065C68.4987 28.8318 69.0754 28.4232 69.5599 27.9049C70.0444 27.3867 70.4268 26.7693 70.6845 26.0895C70.9422 25.4098 71.07 24.6814 71.0601 23.9477C71.0683 23.215 70.9394 22.4881 70.6809 21.8098C70.4225 21.1316 70.0398 20.5158 69.5555 19.9989C69.0711 19.482 68.495 19.0746 67.8612 18.8007C67.2274 18.5268 66.5488 18.392 65.8656 18.4042Z" fill="white"/>
<path fill-rule="evenodd" clip-rule="evenodd" d="M39.6013 4.08263C39.6013 5.06089 39.3337 5.84349 38.7862 6.43045C38.178 7.12175 37.3629 7.47392 36.3775 7.47392C35.4287 7.47392 34.6136 7.12175 33.9445 6.4174C33.623 6.07765 33.3697 5.67094 33.2002 5.22231C33.0308 4.77368 32.9487 4.29262 32.9591 3.80872C32.9591 2.76525 33.2876 1.87829 33.9567 1.17395C34.6136 0.469603 35.4165 0.117432 36.3775 0.117432C36.8398 0.117432 37.2899 0.221778 37.7157 0.41743C38.1537 0.613081 38.4943 0.87395 38.7497 1.20004L38.1658 1.81308C37.9464 1.53753 37.6713 1.31917 37.3615 1.17453C37.0516 1.0299 36.7152 0.962792 36.3775 0.978297C35.6841 0.978297 35.088 1.23917 34.5771 1.7609C34.0783 2.28264 33.8229 2.9609 33.8229 3.79568C33.8229 4.63046 34.0662 5.30871 34.5771 5.83045C35.088 6.35219 35.672 6.61305 36.3775 6.61305C37.1074 6.61305 37.7157 6.35219 38.2023 5.83045C38.5186 5.47828 38.7132 5.00871 38.7619 4.39567H36.3775V3.54785H39.5526C39.5891 3.73046 39.6013 3.91307 39.6013 4.06959" fill="white"/>
<path fill-rule="evenodd" clip-rule="evenodd" d="M39.6011 4.08259H39.4916C39.4916 5.0478 39.224 5.77823 38.713 6.35215C38.1048 7.01736 37.3384 7.35649 36.3773 7.35649C35.4528 7.35649 34.6742 7.01736 34.0294 6.3391C33.714 6.00938 33.4658 5.61312 33.3003 5.17535C33.1349 4.73757 33.056 4.26778 33.0684 3.79563C33.0684 2.77825 33.3847 1.94347 34.0416 1.25217C34.3459 0.921199 34.7101 0.660271 35.1117 0.485339C35.5133 0.310408 35.9439 0.225151 36.3773 0.234782C36.8274 0.234782 37.2654 0.326085 37.679 0.521736C38.0926 0.717388 38.4089 0.965212 38.6644 1.27825L38.7495 1.19999L38.6644 1.12173L38.0926 1.73477L38.1656 1.81304L38.2508 1.74782C37.8006 1.16086 37.1559 0.860865 36.3773 0.860865C35.6474 0.860865 35.027 1.13478 34.5039 1.6826C33.9808 2.21738 33.7131 2.93477 33.7131 3.79563C33.7131 4.6565 33.9808 5.36085 34.5039 5.90867C35.027 6.45649 35.6596 6.7304 36.3773 6.7304C37.1316 6.7304 37.7763 6.45649 38.2873 5.90867C38.6279 5.54345 38.8225 5.03476 38.8712 4.40868V4.27824H36.499V3.6652H39.5646V3.54781L39.4551 3.5739C39.4916 3.74346 39.5038 3.91303 39.5038 4.08259H39.7227C39.7227 3.89998 39.7106 3.71737 39.6741 3.53477L39.6619 3.43042H36.2557V4.51302H38.7495V4.39563H38.6279C38.5914 4.98259 38.4089 5.42606 38.1169 5.7391C37.6425 6.2478 37.0707 6.49562 36.3652 6.49562C35.6961 6.49562 35.1243 6.23475 34.6377 5.7391C34.1511 5.24345 33.9078 4.60433 33.9078 3.79563C33.9078 2.98694 34.1511 2.36086 34.6377 1.83912C35.1243 1.34347 35.6961 1.09565 36.3652 1.09565C37.0951 1.09565 37.6547 1.35652 38.0683 1.8913L38.1534 1.99564L38.8104 1.27825L38.8833 1.21304L38.8225 1.12173C38.5311 0.761162 38.1643 0.47959 37.752 0.299998C37.3172 0.101999 36.8497 -3.10105e-05 36.3773 7.06999e-09C35.4041 7.06999e-09 34.5525 0.365216 33.8835 1.09565C33.5487 1.44377 33.2843 1.86188 33.1064 2.32407C32.9285 2.78626 32.8411 3.28268 32.8494 3.78259C32.8494 4.85215 33.19 5.76519 33.8835 6.49562C34.2088 6.84818 34.5977 7.12599 35.0265 7.31212C35.4552 7.49824 35.9149 7.58879 36.3773 7.57823C37.387 7.57823 38.2264 7.21301 38.859 6.49562L38.786 6.41736L38.859 6.50867C39.4308 5.89563 39.7106 5.07389 39.7106 4.06955H39.6011V4.08259ZM44.6496 1.13478H41.657V3.37825H44.3577V4.21302H41.657V6.45649H44.6496V7.31736H40.8176V0.273912H44.6496V1.13478Z" fill="white"/>
<path fill-rule="evenodd" clip-rule="evenodd" d="M44.6496 1.13499V1.0176H41.5475V3.49585H44.2482V4.09585H41.5475V6.5741H44.5402V7.20018H40.9271V0.39152H44.5402V1.13499H44.6496V1.0176V1.14804H44.7591V0.156738H40.7081V7.43496H44.7591V6.33932H41.7665V4.33063H44.4672V3.26107H41.7665V1.25239H44.7591V1.13499H44.6375H44.6496ZM48.2019 7.31757H47.3625V1.13499H45.5377V0.274129H50.0388V1.13499H48.214V7.31757" fill="white"/>
<path fill-rule="evenodd" clip-rule="evenodd" d="M48.2021 7.31757V7.20018H47.4722V1.0176H45.6474V0.39152H49.9295V1.0176H48.1048V7.31757H48.2021V7.20018V7.33062H48.3237V1.25239H50.1485V0.156738H45.4163V1.25239H47.2532V7.43496H48.3116V7.31757H48.2021ZM53.3114 7.31757H54.163V0.274129H53.3114V7.31757Z" fill="white"/>
<path fill-rule="evenodd" clip-rule="evenodd" d="M53.3113 7.31757H53.4208V0.404564H54.0412V7.20018H53.3113V7.33062H53.4208H53.2991V7.43496H54.2723V0.156738H53.2018V7.43496H53.3113V7.31757ZM57.8975 7.31757H57.046V1.13499H55.2212V0.274129H59.7223V1.13499H57.8975V7.31757Z" fill="white"/>
<path fill-rule="evenodd" clip-rule="evenodd" d="M57.8973 7.3175V7.20011H57.1674V1.01753H55.3304V0.391444H59.6126V1.01753H57.7878V7.3175H57.8973V7.20011V7.33054H58.0068V1.25231H59.8315V0.156662H55.1115V1.25231H56.9362V7.43489H58.0068V7.3175H57.8851H57.8973ZM64.0772 5.81751C64.5638 6.33924 65.172 6.60011 65.8655 6.60011C66.571 6.60011 67.1671 6.33924 67.6537 5.81751C68.1403 5.29577 68.3836 4.61751 68.3836 3.79578C68.3836 2.97404 68.1403 2.30883 67.6537 1.77405C67.1671 1.25231 66.571 0.991442 65.8655 0.991442C65.1599 0.991442 64.5638 1.25231 64.0772 1.77405C63.5906 2.29578 63.3473 2.97404 63.3473 3.79578C63.3473 4.61751 63.5906 5.29577 64.0772 5.81751ZM68.2742 6.40446C67.6294 7.12185 66.8265 7.47402 65.8655 7.47402C64.9044 7.47402 64.1015 7.12185 63.4568 6.40446C63.1397 6.06179 62.8902 5.65427 62.723 5.20612C62.5558 4.75797 62.4744 4.27835 62.4835 3.79578C62.4738 3.31427 62.5542 2.83556 62.7201 2.38798C62.886 1.94041 63.1339 1.53307 63.4493 1.19009C63.7646 0.847109 64.1409 0.575461 64.556 0.391229C64.971 0.206997 65.4163 0.113928 65.8655 0.117532C66.3146 0.113928 66.7599 0.206997 67.1749 0.391229C67.59 0.575461 67.9663 0.847109 68.2816 1.19009C68.597 1.53307 68.845 1.94041 69.0108 2.38798C69.1767 2.83556 69.2571 3.31427 69.2474 3.79578C69.2474 4.82621 68.9189 5.70012 68.2742 6.40446Z" fill="white"/>
<path fill-rule="evenodd" clip-rule="evenodd" d="M64.0773 5.81746L64.0044 5.89572C64.5153 6.44355 65.1357 6.7305 65.8656 6.7305C66.5955 6.7305 67.2281 6.44355 67.7269 5.89572C68.2378 5.3479 68.4933 4.64356 68.4933 3.80878C68.4933 2.94791 68.2378 2.24357 67.7269 1.69574C67.4871 1.42654 67.1979 1.21341 66.8776 1.06976C66.5573 0.9261 66.2128 0.855013 65.8656 0.860963C65.1357 0.860963 64.5153 1.14792 64.0044 1.69574C63.751 1.97214 63.5524 2.30071 63.4207 2.66164C63.289 3.02256 63.2268 3.40835 63.238 3.79573C63.238 4.64355 63.4934 5.36094 64.0044 5.89572L64.1625 5.7392C63.9277 5.48379 63.7441 5.17968 63.6227 4.84551C63.5014 4.51133 63.445 4.15411 63.4569 3.79573C63.4569 3.01313 63.7002 2.36096 64.1625 1.85226C64.3828 1.60763 64.6477 1.41422 64.9407 1.28407C65.2337 1.15392 65.5485 1.08982 65.8656 1.09574C66.5469 1.09574 67.1065 1.35661 67.5688 1.85226C68.0432 2.374 68.2743 3.00008 68.2743 3.80878C68.2743 4.59138 68.031 5.23051 67.5688 5.7392C67.1065 6.2479 66.5469 6.49572 65.8656 6.49572C65.5485 6.50165 65.2337 6.43754 64.9407 6.30739C64.6477 6.17724 64.3828 5.98384 64.1625 5.7392L64.0773 5.81746ZM68.2743 6.40442L68.2013 6.32616C67.5687 7.01746 66.8023 7.35659 65.8656 7.36963C65.4318 7.37149 65.0021 7.28017 64.6018 7.10106C64.2015 6.92194 63.8386 6.65867 63.5348 6.32677C63.2309 5.99486 62.9921 5.60106 62.8324 5.16859C62.6728 4.73613 62.5956 4.27376 62.6054 3.80878C62.594 3.34271 62.67 2.87893 62.8288 2.44494C62.9877 2.01095 63.2263 1.61559 63.5303 1.28229C63.8344 0.948987 64.1977 0.684537 64.5989 0.504618C65 0.324699 65.4308 0.232973 65.8656 0.234879C66.8023 0.234879 67.5688 0.574007 68.1892 1.27835C68.8218 1.96965 69.1381 2.80443 69.1381 3.79573C69.1381 4.80008 68.8218 5.63486 68.2013 6.32616L68.3595 6.49572C69.0164 5.76529 69.357 4.85225 69.357 3.79573C69.3668 3.29881 69.2835 2.80483 69.1121 2.34302C68.9408 1.8812 68.6847 1.46093 68.3592 1.10705C68.0337 0.753168 67.6453 0.472874 67.217 0.282742C66.7887 0.0926089 66.3292 -0.00350095 65.8656 9.743e-05C65.4031 -0.00175266 64.9449 0.095647 64.518 0.28656C64.0911 0.477474 63.7042 0.758042 63.38 1.11174C63.0557 1.46544 62.8008 1.88512 62.6302 2.34607C62.4595 2.80702 62.3766 3.29991 62.3864 3.79573C62.3864 4.85225 62.7148 5.75225 63.3839 6.49572C64.0409 7.22615 64.8802 7.59137 65.8656 7.59137C66.851 7.59137 67.6904 7.22615 68.3595 6.49572L68.2743 6.40442ZM70.4397 7.31746V0.274009H71.4616L74.6489 5.75225H74.6854L74.6489 4.39573V0.274009H75.5004V7.31746H74.6124L71.267 1.57835H71.2305L71.267 2.93487V7.31746H70.4276" fill="white"/>
<path fill-rule="evenodd" clip-rule="evenodd" d="M70.4396 7.31757H70.537V0.404564H71.3885L74.588 5.8828H74.7948L74.7583 4.39585V0.39152H75.3787V7.20018H74.6731L71.3277 1.46108H71.1209L71.1574 2.93499V7.20018H70.4275V7.33062H70.5491H70.4275V7.43496H71.3764V2.93499L71.3399 1.56543H71.2304V1.69586H71.2669V1.56543L71.1817 1.63064L74.5515 7.43496H75.5977V0.156738H74.5393V4.39585L74.5758 5.75236H74.6853V5.63497H74.6488V5.76541L74.7461 5.68715L71.5223 0.156738H70.318V7.43496H70.4396V7.31757Z" fill="white"/>
</svg>
